<?xml version="1.0" standalone="no"?>
<!DOCTYPE svg PUBLIC "-//W3C//DTD SVG 20010904//EN"
 "http://www.w3.org/TR/2001/REC-SVG-20010904/DTD/svg10.dtd">
<svg version="1.0" xmlns="http://www.w3.org/2000/svg"
 width="700.000000pt" height="700.000000pt" viewBox="0 0 700.000000 700.000000"
 preserveAspectRatio="xMidYMid meet">
<metadata>
Created by potrace 1.11, written by Peter Selinger 2001-2013
</metadata>
<g transform="translate(0.000000,700.000000) scale(0.100000,-0.100000)"
fill="#000000" stroke="none">
<path d="M1787 4844 c-1 -1 -34 -4 -73 -7 -510 -44 -972 -408 -1138 -899 -55
-162 -70 -253 -70 -423 -1 -189 10 -268 59 -425 159 -501 624 -877 1149 -927
115 -11 351 -3 377 13 4 2 24 6 45 10 68 10 227 65 309 106 111 55 225 134
321 220 78 71 205 185 248 221 26 22 141 124 172 152 36 33 146 129 194 171
155 134 282 245 335 295 28 25 72 66 100 90 27 24 58 53 70 64 11 11 56 52
100 90 44 39 89 79 100 90 12 11 48 43 81 72 32 28 71 62 85 75 14 12 56 50
94 83 37 33 77 69 89 80 69 65 199 176 239 204 281 193 673 192 957 -2 118
-82 244 -236 300 -367 44 -104 67 -222 64 -338 -2 -121 -6 -151 -35 -241 -139
-437 -583 -680 -1033 -565 -125 32 -256 108 -379 220 -30 27 -69 63 -88 79
-142 126 -200 175 -205 175 -5 0 -145 -121 -174 -150 -3 -3 -43 -39 -90 -80
-47 -41 -91 -81 -98 -88 -12 -10 -6 -20 34 -55 27 -23 109 -96 184 -162 245
-218 282 -246 424 -319 106 -54 240 -102 341 -122 106 -21 344 -32 410 -20 11
2 47 7 80 11 89 10 273 69 373 118 410 204 669 555 749 1017 3 14 6 91 8 171
8 387 -137 732 -425 1002 -369 347 -913 454 -1400 276 -144 -53 -308 -155
-435 -269 -44 -40 -98 -89 -120 -109 -35 -32 -421 -374 -514 -456 -19 -16 -44
-39 -56 -50 -13 -11 -53 -47 -91 -80 -37 -33 -91 -80 -119 -105 -28 -25 -81
-72 -119 -105 -37 -33 -82 -73 -100 -90 -18 -16 -63 -57 -101 -90 -38 -33 -78
-69 -90 -80 -21 -20 -59 -54 -150 -134 -27 -24 -81 -71 -119 -105 -38 -34 -77
-68 -86 -76 -9 -8 -54 -49 -100 -90 -108 -98 -158 -133 -255 -180 -359 -175
-796 -69 -1039 250 -107 141 -168 316 -169 490 -2 162 21 266 83 390 51 101
86 149 175 236 88 86 93 90 221 154 312 154 686 93 956 -156 24 -21 79 -71
123 -109 44 -39 97 -86 118 -105 56 -51 59 -51 97 -18 273 237 341 302 327
312 -18 14 -123 107 -287 254 -191 172 -333 263 -510 326 -140 51 -290 78
-448 80 -40 1 -74 1 -75 0z"/>
</g>
</svg>
